<mxfile host="app.diagrams.net" modified="2023-05-08T02:23:13.397Z" agent="Mozilla/5.0 (Macintosh; Intel Mac OS X 10_15_7) AppleWebKit/537.36 (KHTML, like Gecko) Chrome/112.0.0.0 Safari/537.36" etag="4IZ0-eOzCuxETHUddt_V" version="21.2.9" type="device">
  <diagram name="Page-1" id="ngXtr_aJKpOXbXRIsodC">
    <mxGraphModel dx="763" dy="430" grid="1" gridSize="10" guides="1" tooltips="1" connect="1" arrows="1" fold="1" page="1" pageScale="1" pageWidth="850" pageHeight="1100" background="#ffffff" math="0" shadow="0">
      <root>
        <mxCell id="0" />
        <mxCell id="1" parent="0" />
        <mxCell id="WTn1-iiIgvC_FIJvYfPj-3" value="AWS Cloud" style="points=[[0,0],[0.25,0],[0.5,0],[0.75,0],[1,0],[1,0.25],[1,0.5],[1,0.75],[1,1],[0.75,1],[0.5,1],[0.25,1],[0,1],[0,0.75],[0,0.5],[0,0.25]];outlineConnect=0;gradientColor=none;html=1;whiteSpace=wrap;fontSize=12;fontStyle=0;container=1;pointerEvents=0;collapsible=0;recursiveResize=0;shape=mxgraph.aws4.group;grIcon=mxgraph.aws4.group_aws_cloud_alt;strokeColor=#232F3E;fillColor=none;verticalAlign=top;align=left;spacingLeft=30;fontColor=#232F3E;dashed=0;" vertex="1" parent="1">
          <mxGeometry x="110" y="120" width="650" height="360" as="geometry" />
        </mxCell>
        <mxCell id="WTn1-iiIgvC_FIJvYfPj-7" value="API GATEWAY" style="sketch=0;points=[[0,0,0],[0.25,0,0],[0.5,0,0],[0.75,0,0],[1,0,0],[0,1,0],[0.25,1,0],[0.5,1,0],[0.75,1,0],[1,1,0],[0,0.25,0],[0,0.5,0],[0,0.75,0],[1,0.25,0],[1,0.5,0],[1,0.75,0]];outlineConnect=0;fontColor=#232F3E;gradientColor=#945DF2;gradientDirection=north;fillColor=#5A30B5;strokeColor=#ffffff;dashed=0;verticalLabelPosition=bottom;verticalAlign=top;align=center;html=1;fontSize=12;fontStyle=0;aspect=fixed;shape=mxgraph.aws4.resourceIcon;resIcon=mxgraph.aws4.api_gateway;" vertex="1" parent="WTn1-iiIgvC_FIJvYfPj-3">
          <mxGeometry x="50" y="80" width="78" height="78" as="geometry" />
        </mxCell>
        <mxCell id="WTn1-iiIgvC_FIJvYfPj-17" style="edgeStyle=orthogonalEdgeStyle;rounded=0;orthogonalLoop=1;jettySize=auto;html=1;" edge="1" parent="WTn1-iiIgvC_FIJvYfPj-3" source="WTn1-iiIgvC_FIJvYfPj-9" target="WTn1-iiIgvC_FIJvYfPj-7">
          <mxGeometry relative="1" as="geometry" />
        </mxCell>
        <mxCell id="WTn1-iiIgvC_FIJvYfPj-18" style="edgeStyle=orthogonalEdgeStyle;rounded=0;orthogonalLoop=1;jettySize=auto;html=1;entryX=0;entryY=0.5;entryDx=0;entryDy=0;entryPerimeter=0;" edge="1" parent="WTn1-iiIgvC_FIJvYfPj-3" source="WTn1-iiIgvC_FIJvYfPj-9" target="WTn1-iiIgvC_FIJvYfPj-10">
          <mxGeometry relative="1" as="geometry" />
        </mxCell>
        <mxCell id="WTn1-iiIgvC_FIJvYfPj-9" value="LAMBDA" style="sketch=0;points=[[0,0,0],[0.25,0,0],[0.5,0,0],[0.75,0,0],[1,0,0],[0,1,0],[0.25,1,0],[0.5,1,0],[0.75,1,0],[1,1,0],[0,0.25,0],[0,0.5,0],[0,0.75,0],[1,0.25,0],[1,0.5,0],[1,0.75,0]];outlineConnect=0;fontColor=#232F3E;gradientColor=#F78E04;gradientDirection=north;fillColor=#D05C17;strokeColor=#ffffff;dashed=0;verticalLabelPosition=bottom;verticalAlign=top;align=center;html=1;fontSize=12;fontStyle=0;aspect=fixed;shape=mxgraph.aws4.resourceIcon;resIcon=mxgraph.aws4.lambda;" vertex="1" parent="WTn1-iiIgvC_FIJvYfPj-3">
          <mxGeometry x="250" y="80" width="78" height="78" as="geometry" />
        </mxCell>
        <mxCell id="WTn1-iiIgvC_FIJvYfPj-10" value="DYNAMODB" style="sketch=0;points=[[0,0,0],[0.25,0,0],[0.5,0,0],[0.75,0,0],[1,0,0],[0,1,0],[0.25,1,0],[0.5,1,0],[0.75,1,0],[1,1,0],[0,0.25,0],[0,0.5,0],[0,0.75,0],[1,0.25,0],[1,0.5,0],[1,0.75,0]];outlineConnect=0;fontColor=#232F3E;gradientColor=#4D72F3;gradientDirection=north;fillColor=#3334B9;strokeColor=#ffffff;dashed=0;verticalLabelPosition=bottom;verticalAlign=top;align=center;html=1;fontSize=12;fontStyle=0;aspect=fixed;shape=mxgraph.aws4.resourceIcon;resIcon=mxgraph.aws4.dynamodb;" vertex="1" parent="WTn1-iiIgvC_FIJvYfPj-3">
          <mxGeometry x="460" y="80" width="78" height="78" as="geometry" />
        </mxCell>
        <mxCell id="WTn1-iiIgvC_FIJvYfPj-19" style="edgeStyle=orthogonalEdgeStyle;rounded=0;orthogonalLoop=1;jettySize=auto;html=1;entryX=1;entryY=0.5;entryDx=0;entryDy=0;entryPerimeter=0;" edge="1" parent="WTn1-iiIgvC_FIJvYfPj-3" source="WTn1-iiIgvC_FIJvYfPj-12" target="WTn1-iiIgvC_FIJvYfPj-10">
          <mxGeometry relative="1" as="geometry">
            <Array as="points">
              <mxPoint x="89" y="200" />
              <mxPoint x="570" y="200" />
              <mxPoint x="570" y="119" />
            </Array>
          </mxGeometry>
        </mxCell>
        <mxCell id="WTn1-iiIgvC_FIJvYfPj-20" style="edgeStyle=orthogonalEdgeStyle;rounded=0;orthogonalLoop=1;jettySize=auto;html=1;" edge="1" parent="WTn1-iiIgvC_FIJvYfPj-3" source="WTn1-iiIgvC_FIJvYfPj-12" target="WTn1-iiIgvC_FIJvYfPj-16">
          <mxGeometry relative="1" as="geometry" />
        </mxCell>
        <mxCell id="WTn1-iiIgvC_FIJvYfPj-12" value="GLUE" style="sketch=0;points=[[0,0,0],[0.25,0,0],[0.5,0,0],[0.75,0,0],[1,0,0],[0,1,0],[0.25,1,0],[0.5,1,0],[0.75,1,0],[1,1,0],[0,0.25,0],[0,0.5,0],[0,0.75,0],[1,0.25,0],[1,0.5,0],[1,0.75,0]];outlineConnect=0;fontColor=#232F3E;gradientColor=#945DF2;gradientDirection=north;fillColor=#5A30B5;strokeColor=#ffffff;dashed=0;verticalLabelPosition=bottom;verticalAlign=top;align=center;html=1;fontSize=12;fontStyle=0;aspect=fixed;shape=mxgraph.aws4.resourceIcon;resIcon=mxgraph.aws4.glue;" vertex="1" parent="WTn1-iiIgvC_FIJvYfPj-3">
          <mxGeometry x="50" y="240" width="78" height="78" as="geometry" />
        </mxCell>
        <mxCell id="WTn1-iiIgvC_FIJvYfPj-16" value="S3" style="sketch=0;points=[[0,0,0],[0.25,0,0],[0.5,0,0],[0.75,0,0],[1,0,0],[0,1,0],[0.25,1,0],[0.5,1,0],[0.75,1,0],[1,1,0],[0,0.25,0],[0,0.5,0],[0,0.75,0],[1,0.25,0],[1,0.5,0],[1,0.75,0]];outlineConnect=0;fontColor=#232F3E;gradientColor=#60A337;gradientDirection=north;fillColor=#277116;strokeColor=#ffffff;dashed=0;verticalLabelPosition=bottom;verticalAlign=top;align=center;html=1;fontSize=12;fontStyle=0;aspect=fixed;shape=mxgraph.aws4.resourceIcon;resIcon=mxgraph.aws4.s3;" vertex="1" parent="WTn1-iiIgvC_FIJvYfPj-3">
          <mxGeometry x="250" y="240" width="78" height="78" as="geometry" />
        </mxCell>
      </root>
    </mxGraphModel>
  </diagram>
</mxfile>
